<?xml version="1.0" encoding="UTF-8"?>
<svg version="1.1" xmlns="http://www.w3.org/2000/svg" width="1254" height="1254">
<path d="M0 0 C0 3 0 3 -1.28515625 4.54296875 C-1.87167969 5.08566406 -2.45820312 5.62835938 -3.0625 6.1875 C-6.96412666 9.9339924 -10.47608371 13.89956065 -14 18 C-14.9578069 19.1059249 -15.91618902 20.21135175 -16.875 21.31640625 C-21.39333235 26.52405793 -25.90817957 31.73469589 -30.4140625 36.953125 C-35.14616583 42.42939529 -39.87858959 47.89652293 -44.75 53.25 C-48.48502433 57.37070619 -51.99657415 61.63979156 -55.49609375 65.9609375 C-60.00629548 71.4350981 -64.6965829 76.75426306 -69.35351562 82.10351562 C-71.93637383 85.07855159 -74.50060432 88.06941083 -77.0625 91.0625 C-77.55266602 91.63516602 -78.04283203 92.20783203 -78.54785156 92.79785156 C-79.5358886 93.95240438 -80.52384448 95.10702666 -81.51171875 96.26171875 C-83.01672049 98.01952918 -84.52367703 99.77564446 -86.03125 101.53125 C-91.32986923 107.70288389 -96.6082144 113.89055036 -101.85571289 120.10571289 C-105.2191397 124.08603905 -108.60511609 128.04648503 -112 132 C-117.23980191 138.10312567 -122.44335223 144.23596352 -127.63232422 150.38232422 C-129.02459417 152.02908979 -130.42005473 153.67310067 -131.81640625 155.31640625 C-136.04853633 160.30026248 -140.25737398 165.29559272 -144.375 170.375 C-148.54091722 175.49653981 -152.86090195 180.47239757 -157.19824219 185.44824219 C-161.1409099 189.9815026 -164.97584314 194.58922761 -168.7578125 199.2578125 C-171.30253683 202.37000148 -173.89618225 205.43726497 -176.5 208.5 C-179.87288602 212.46899152 -183.21176774 216.4601718 -186.5 220.5 C-192.01536017 227.27152761 -197.6757824 233.91845142 -203.33544922 240.56933594 C-209.53812171 247.85983345 -215.65463702 255.21485318 -221.72436523 262.61645508 C-226.04004702 267.86644142 -230.43932004 273.03713894 -234.88037109 278.18115234 C-238.33511659 282.19367713 -241.6623933 286.29058073 -244.9453125 290.4453125 C-247.39188425 293.48724772 -249.90833748 296.46418341 -252.4375 299.4375 C-257.3657391 305.23239148 -262.2016009 311.09693348 -267 317 C-271.79840389 322.90307241 -276.63447944 328.76741877 -281.5625 334.5625 C-285.47333289 339.16332132 -289.29594656 343.82106047 -293.05078125 348.55078125 C-298.87158917 355.86470222 -304.85856296 363.03499139 -310.90893555 370.15893555 C-316.07217585 376.24698922 -321.11096422 382.43491928 -326.13671875 388.63671875 C-330.87584684 394.46491038 -335.72154225 400.1873229 -340.62597656 405.87597656 C-344.16386443 409.99184739 -347.5802201 414.18658561 -350.9453125 418.4453125 C-353.39188425 421.48724772 -355.90833748 424.46418341 -358.4375 427.4375 C-363.3657391 433.23239148 -368.2016009 439.09693348 -373 445 C-377.69564206 450.77665318 -382.42473056 456.51854317 -387.25 462.1875 C-391.40392687 467.06920777 -395.47022932 472.01540316 -399.5 477 C-405.67309282 484.63231964 -411.98221345 492.13934008 -418.36621094 499.59570312 C-424.02303124 506.2040255 -429.52970666 512.89209897 -434.8684082 519.76049805 C-438.49146401 524.40247777 -442.25784575 528.90504933 -446.08154297 533.38232422 C-449.49083126 537.37920978 -452.79403458 541.44717693 -456.05859375 545.5625 C-458.82338604 549.03378851 -461.64189198 552.46012826 -464.45703125 555.890625 C-466.33792053 558.18589653 -468.20805404 560.48961681 -470.07421875 562.796875 C-475.6870324 569.73380585 -481.33880461 576.62761739 -487.12109375 583.42407227 C-492.4993842 589.7500316 -497.72582797 596.1970022 -502.95703125 602.64453125 C-522.89363261 627.21342457 -522.89363261 627.21342457 -532.6875 638.6875 C-536.38482966 643.02021364 -539.94432483 647.43880808 -543.4375 651.9375 C-547.5815855 657.27107789 -551.88397979 662.43211267 -556.30615234 667.53662109 C-560.2978868 672.15330467 -564.19347648 676.84264954 -568.0625 681.5625 C-572.71750053 687.24055659 -577.41288518 692.87883285 -582.17041016 698.47119141 C-584.96575428 701.76220054 -587.71522365 705.0858802 -590.4375 708.4375 C-593.84474611 712.62823051 -597.34082165 716.72936134 -600.875 720.8125 C-604.9323508 725.50282586 -608.83289734 730.28054882 -612.625 735.1875 C-616.76346233 740.54123685 -621.13556287 745.5320945 -625.73828125 750.49609375 C-628.36399331 753.40297014 -630.73117944 756.44431879 -633.09765625 759.5625 C-635.44379264 762.5686378 -637.90244938 765.47302862 -640.375 768.375 C-644.46951194 773.18400912 -648.50611076 778.03321464 -652.49609375 782.9296875 C-655.61343071 786.75219429 -658.74216857 790.56518697 -661.875 794.375 C-662.46990234 795.09929199 -663.06480469 795.82358398 -663.67773438 796.56982422 C-666.5263579 800.0298634 -669.3907482 803.47304337 -672.30859375 806.875 C-672.81729004 807.46877441 -673.32598633 808.06254883 -673.85009766 808.67431641 C-674.80009068 809.77909961 -675.75398508 810.8805443 -676.71240234 811.97802734 C-678.74062869 814.33536505 -680.00375298 816.01125893 -681 819 C-680.24460937 818.56171875 -679.48921875 818.1234375 -678.7109375 817.671875 C-670.09711641 812.70934576 -661.39856326 807.92049035 -652.64208984 803.21386719 C-647.93424621 800.66795139 -643.38584322 798.07009026 -639 795 C-638.34 795.33 -637.68 795.66 -637 796 C-637.44166504 796.33620361 -637.88333008 796.67240723 -638.33837891 797.01879883 C-651.74776689 807.23275081 -665.03651289 817.56099117 -678.09423828 828.22119141 C-684.30165776 833.27500629 -690.63553972 838.1460383 -697 843 C-700.00497441 845.32697183 -703.00373422 847.66182877 -706 850 C-698.97023299 849.22655375 -692.07072371 847.94396232 -685.125 846.625 C-677.07574856 845.10832468 -669.02849512 843.65016823 -660.9375 842.375 C-655.52424693 841.51604153 -650.37575333 840.35272913 -645.171875 838.62109375 C-642.17265717 837.76340376 -639.21120339 837.50088126 -636.10546875 837.30859375 C-633.93614844 837.08172975 -633.93614844 837.08172975 -631.82299805 836.07324219 C-628.48336583 834.80358698 -625.24034651 834.17112157 -621.7265625 833.51953125 C-620.26105211 833.24300257 -618.79555802 832.96638751 -617.33007812 832.68969727 C-616.56252197 832.54670197 -615.79496582 832.40370667 -615.00415039 832.25637817 C-600.43961852 829.53907294 -585.97131807 826.5267674 -571.54931641 823.1340332 C-570.34710449 822.85390381 -569.14489258 822.57377441 -567.90625 822.28515625 C-566.33327148 821.91209351 -566.33327148 821.91209351 -564.72851562 821.53149414 C-562 821 -562 821 -558 821 C-558 821.66 -558 822.32 -558 823 C-559.05316406 823.23074219 -560.10632813 823.46148438 -561.19140625 823.69921875 C-569.62665638 825.59015023 -577.76525957 827.81839168 -585.94140625 830.65625 C-590.63665964 832.25223715 -595.4101491 833.55023606 -600.1875 834.875 C-608.1748338 837.10279425 -615.97748526 839.66950238 -623.78027344 842.47094727 C-628.79402963 844.26038026 -633.8131779 845.87301227 -638.9375 847.3125 C-646.98965942 849.59402765 -654.8999525 852.28061395 -662.8125 855 C-664.63672485 855.62322144 -664.63672485 855.62322144 -666.49780273 856.2590332 C-673.21703552 858.58543197 -679.80171931 861.10306552 -686.34545898 863.88427734 C-689.73796771 865.31017313 -693.15765956 866.57975481 -696.625 867.8125 C-697.79289062 868.23144531 -698.96078125 868.65039062 -700.1640625 869.08203125 C-703 870 -703 870 -705 870 C-705 870.66 -705 871.32 -705 872 C-704.26136719 871.97679687 -703.52273438 871.95359375 -702.76171875 871.9296875 C-696.72389686 871.82228025 -691.2441245 872.19755047 -685.34375 873.4296875 C-679.87408496 874.36259766 -674.34522705 874.77273387 -668.81640625 875.21435547 C-667.56150391 875.32481201 -667.56150391 875.32481201 -666.28125 875.4375 C-665.52908203 875.49808594 -664.77691406 875.55867187 -664.00195312 875.62109375 C-662 876 -662 876 -659 878 C-676.82 878.66 -694.64 879.32 -713 880 C-700.04384954 885.8891593 -687.19411003 891.72009617 -674 897 C-673.31180176 897.27835693 -672.62360352 897.55671387 -671.91455078 897.84350586 C-663.43796791 901.26026238 -654.90504687 904.53217848 -646.375 907.8125 C-645.52742126 908.13847168 -644.67984253 908.46444336 -643.80657959 908.80029297 C-613.01123777 920.63611287 -582.08804803 932.11527921 -551.09075928 943.41052246 C-542.38562997 946.58471292 -533.69250618 949.7914345 -525 953 C-528.55352144 954.18450715 -529.78983544 953.73155042 -533.34765625 952.7421875 C-534.42982422 952.44570312 -535.51199219 952.14921875 -536.62695312 951.84375 C-537.76068359 951.5240625 -538.89441406 951.204375 -540.0625 950.875 C-541.67608398 950.43027344 -541.67608398 950.43027344 -543.32226562 949.9765625 C-546.88392519 948.9928859 -550.44185684 947.99631681 -554 947 C-556.07456992 946.42363405 -558.14950961 945.84861152 -560.22445679 945.27360535 C-567.78775679 943.17708074 -575.34627697 941.06384398 -582.90234375 938.94140625 C-604.98256891 932.74018712 -627.07302441 926.57805876 -649.1875 920.5 C-650.73943558 920.07269089 -650.73943558 920.07269089 -652.32272339 919.63674927 C-664.2485725 916.35455507 -676.19101658 913.15117884 -688.16448975 910.04708862 C-694.78195271 908.3282192 -701.37356565 906.53926293 -707.9375 904.625 C-708.83533203 904.36589844 -709.73316406 904.10679687 -710.65820312 903.83984375 C-712.77289427 903.22918428 -714.8865818 902.6150505 -717 902 C-717 902.66 -717 903.32 -717 904 C-716.47664063 904.21527344 -715.95328125 904.43054688 -715.4140625 904.65234375 C-712.04370937 906.53385157 -709.26687949 909.0335753 -706.375 911.5625 C-705.76124512 912.09391602 -705.14749023 912.62533203 -704.51513672 913.17285156 C-699.28398139 917.71587627 -694.11814398 922.32998844 -689 927 C-692.56174585 927 -693.91370925 926.10608115 -696.97265625 924.33203125 C-697.95556641 923.76806641 -698.93847656 923.20410156 -699.95117188 922.62304688 C-700.97791016 922.02556641 -702.00464844 921.42808594 -703.0625 920.8125 C-710.27375912 916.64196523 -717.49728665 912.62546527 -725 909 C-721.59971651 914.39312362 -718.19577679 919.7839168 -714.78808594 925.17236328 C-713.6085708 927.03762056 -712.42952397 928.90317408 -711.25097656 930.76904297 C-703.33495426 943.29498414 -695.28235816 955.71298514 -687 968 C-687.33 968.66 -687.66 969.32 -688 970 C-688.59167969 969.32453125 -689.18335938 968.6490625 -689.79296875 967.953125 C-690.58316406 967.06109375 -691.37335938 966.1690625 -692.1875 965.25 C-692.96480469 964.36828125 -693.74210937 963.4865625 -694.54296875 962.578125 C-696.89263593 960.11265546 -699.33224694 958.10764938 -702 956 C-703.69032345 954.35733077 -705.35412604 952.68720315 -707 951 C-708.16165266 949.82442516 -709.32450199 948.65003211 -710.48828125 947.4765625 C-711.41761475 946.53925293 -711.41761475 946.53925293 -712.36572266 945.58300781 C-718.07564855 939.8401428 -723.77080921 934.18333034 -730 929 C-731.12315869 928.04907738 -732.24547299 927.097157 -733.3671875 926.14453125 C-736.57288876 923.42344287 -739.78505513 920.71015932 -743 918 C-740.12522427 943.04080968 -735.75309868 967.73572976 -730.40625 992.359375 C-729.83198379 995.01012641 -729.25924811 997.66120435 -728.6875 1000.3125 C-728.54246033 1000.98396057 -728.39742065 1001.65542114 -728.24798584 1002.347229 C-725.09992221 1016.98436107 -722.43782671 1031.70486698 -719.84057617 1046.44848633 C-719.52580798 1048.22487503 -719.21046931 1050.00116274 -718.89453125 1051.77734375 C-718.74269882 1052.63344742 -718.59086639 1053.48955109 -718.43443298 1054.37159729 C-717.21736707 1061.10139971 -715.76870417 1067.76631559 -714.14033508 1074.40867615 C-712.89344173 1079.68032519 -712.89344173 1079.68032519 -714 1083 C-714.60951013 1080.86671456 -715.21899419 1078.73342171 -715.82836914 1076.60009766 C-716.36618929 1074.7181392 -716.90444861 1072.83630619 -717.44311523 1070.95458984 C-718.82504231 1066.12485688 -720.20081971 1061.29361451 -721.55859375 1056.45703125 C-723.70533138 1048.83274646 -725.86127119 1041.24295309 -728.4375 1033.75 C-730.65311254 1027.27250857 -732.50048893 1020.72593354 -734.3125 1014.125 C-736.77725348 1005.16765856 -739.4130198 996.28425177 -742.25 987.4375 C-742.74367065 985.89570068 -742.74367065 985.89570068 -743.24731445 984.32275391 C-744.56726607 980.24658147 -745.9151619 976.19856781 -747.43432617 972.19213867 C-749.01252978 968.0134699 -750.44431696 963.79479349 -751.84765625 959.5546875 C-752.1050206 958.7811795 -752.36238495 958.00767151 -752.62754822 957.21072388 C-753.44062517 954.76595389 -754.25160515 952.32049451 -755.0625 949.875 C-755.60988573 948.22781795 -756.15741061 946.58068213 -756.70507812 944.93359375 C-757.71057743 941.90897633 -758.71527771 938.88409624 -759.71899414 935.85888672 C-760.80976649 932.57162342 -761.90387241 929.2854821 -763 926 C-766.84849142 939.23954703 -770.41011398 952.60467521 -773.17578125 966.11328125 C-774.04100131 970.19334739 -774.98545467 974.24967483 -775.93896484 978.30981445 C-780.27869146 996.805316 -784.13486937 1015.40071977 -788 1034 C-788.33 1034 -788.66 1034 -789 1034 C-789.18359799 1025.64483413 -788.69427157 1017.47671913 -787.88882446 1009.16290283 C-786.29252491 992.50883082 -785.25747468 975.82702852 -784.3125 959.125 C-784.21284439 957.39819504 -784.21284439 957.39819504 -784.11117554 955.63650513 C-783.08808103 938.33023171 -783.08808103 938.33023171 -783 921 C-783.37584229 921.72981079 -783.37584229 921.72981079 -783.75927734 922.47436523 C-788.75978279 932.154482 -793.90944493 941.68806478 -799.50683594 951.03662109 C-802.98608777 956.88226559 -806.08511089 962.85029493 -809 969 C-810 966 -810 966 -809.19067383 963.82592773 C-808.76294678 962.97458252 -808.33521973 962.1232373 -807.89453125 961.24609375 C-804.91363497 954.98425248 -802.58799421 948.55436897 -800.3503418 941.99975586 C-799.6790351 940.03776006 -798.99526662 938.08039671 -798.31054688 936.12304688 C-797.88193359 934.87716797 -797.45332031 933.63128906 -797.01171875 932.34765625 C-796.62459717 931.22367432 -796.23747559 930.09969238 -795.83862305 928.94165039 C-794.81722508 925.86868694 -794.81722508 925.86868694 -795 922 C-795.44279297 922.41773682 -795.88558594 922.83547363 -796.34179688 923.26586914 C-798.39314917 925.19955151 -800.44656317 927.13103149 -802.5 929.0625 C-803.19609375 929.71927734 -803.8921875 930.37605469 -804.609375 931.05273438 C-808.73377682 934.92890831 -812.91483992 938.71615942 -817.20703125 942.40600586 C-819.04498955 944.03999683 -820.77781724 945.74500146 -822.5 947.5 C-824.89053167 949.93389732 -827.35046262 952.21355559 -829.9375 954.4375 C-832.74576347 956.85617779 -835.39970593 959.35899683 -838 962 C-840.55990134 964.59982183 -843.1677954 967.06268398 -845.9375 969.4375 C-848.92801716 972.00665271 -851.73116684 974.69317256 -854.5 977.5 C-857.86114482 980.9071879 -861.33701203 984.07458174 -864.96875 987.1875 C-868.03974317 989.92777083 -870.88786876 992.87946902 -873.77734375 995.80859375 C-876.4270144 998.42101068 -879.21172803 1000.83302621 -882.03515625 1003.25390625 C-884.10820324 1005.09615675 -886.05435802 1007.02401662 -888 1009 C-893.00438154 1014.07333956 -898.26077526 1018.77176584 -904 1023 C-902.49993609 1019.55220914 -900.49590738 1017.17639467 -897.9375 1014.4375 C-893.94088683 1010.07813691 -890.1752149 1005.58945134 -886.45703125 1000.9921875 C-883.64906038 997.57262361 -880.76757261 994.22292646 -877.875 990.875 C-874.11115744 986.50931587 -870.45310856 982.10441123 -866.95703125 977.51953125 C-864.27808188 974.07058446 -861.51181859 970.69522961 -858.75 967.3125 C-853.59270419 960.98921976 -848.51956589 954.6064869 -843.4921875 948.1796875 C-839.43013617 942.98808179 -835.30978699 937.84206348 -831.15234375 932.7265625 C-826.38286349 926.83081894 -821.81395075 920.80069902 -817.29980469 914.70849609 C-814.31630945 910.69576448 -811.23730092 906.81137439 -808 903 C-819.81692258 908.1746873 -831.41831501 913.47365909 -842.53857422 920.03857422 C-844.328494 921.08009548 -846.16075075 922.04829545 -848 923 C-848.66 922.67 -849.32 922.34 -850 922 C-849.24662354 921.45025513 -849.24662354 921.45025513 -848.47802734 920.8894043 C-839.30416012 914.18622869 -830.1637027 907.46165572 -821.27880859 900.37768555 C-818.89932544 898.48118126 -816.53452641 896.68968428 -814 895 C-821.88819645 895.65239034 -829.64105157 896.83746792 -837.4375 898.1875 C-838.70883789 898.40672119 -839.98017578 898.62594238 -841.29003906 898.85180664 C-850.77923618 900.51384263 -860.16534842 902.53642891 -869.55273438 904.69799805 C-879.16374143 906.88301348 -888.82210576 908.65954286 -898.52633667 910.36767578 C-909.88140701 912.36873944 -921.13462806 914.66329261 -932.37084961 917.25976562 C-933.45116455 917.50275391 -934.53147949 917.74574219 -935.64453125 917.99609375 C-937.05762573 918.32371704 -937.05762573 918.32371704 -938.49926758 918.65795898 C-941.02569614 919.00351462 -942.60534451 918.80921872 -945 918 C-944.09121094 917.69707031 -943.18242188 917.39414062 -942.24609375 917.08203125 C-941.34673096 916.78220337 -941.34673096 916.78220337 -940.42919922 916.47631836 C-939.08323543 916.02771876 -937.73720503 915.57931899 -936.39111328 915.13110352 C-932.96622347 913.99040001 -929.54227312 912.84710079 -926.12109375 911.6953125 C-924.88488281 911.28023437 -923.64867187 910.86515625 -922.375 910.4375 C-920.71597656 909.87869141 -920.71597656 909.87869141 -919.0234375 909.30859375 C-915.73676206 908.22342381 -912.43103583 907.20714939 -909.12109375 906.1953125 C-901.7017716 903.92190694 -894.31518636 901.55205376 -886.93237305 899.16333008 C-884.67366462 898.43302663 -882.41400171 897.70572928 -880.15429688 896.97851562 C-878.69004525 896.50539062 -877.2258505 896.03208958 -875.76171875 895.55859375 C-874.76926399 895.2397245 -874.76926399 895.2397245 -873.75675964 894.91441345 C-869.71601525 893.60310292 -865.7342946 892.17548657 -861.76289368 890.66731262 C-859.8268892 889.93447193 -857.87980611 889.24225576 -855.921875 888.5703125 C-847.48338811 885.64795333 -839.19196193 882.56721271 -831 879 C-836.29421598 877.30168173 -841.24280763 876.54426354 -846.77734375 876.1484375 C-847.99436729 876.05280014 -847.99436729 876.05280014 -849.23597717 875.95523071 C-851.80268416 875.75507488 -854.37001454 875.56488067 -856.9375 875.375 C-858.68820197 875.2402434 -860.43885377 875.10483322 -862.18945312 874.96875 C-866.45909242 874.63827353 -870.72931934 874.31672284 -875 874 C-875 873.34 -875 872.68 -875 872 C-857.84 871.34 -840.68 870.68 -823 870 C-827.63305311 868.01440581 -831.43771382 866.50087537 -836.1875 865.25 C-842.24184664 863.57182289 -848.1435744 861.60437098 -854.0625 859.5 C-864.05181411 855.95694142 -874.05656674 852.75468248 -884.3125 850.0625 C-889.3830172 848.73128813 -894.38696123 847.28879639 -899.38671875 845.70703125 C-900.79700329 845.26289693 -902.20740799 844.81914403 -903.61791992 844.37573242 C-904.33998627 844.14856537 -905.06205261 843.92139832 -905.80599976 843.68734741 C-912.36051356 841.63391642 -918.931417 839.63286418 -925.5 837.625 C-926.66755829 837.26799515 -926.66755829 837.26799515 -927.85870361 836.90377808 C-941.20744659 832.82517543 -954.58259019 828.84736301 -968 825 C-969.16450684 824.66548828 -969.16450684 824.66548828 -970.35253906 824.32421875 C-974.23330796 823.210057 -978.1154911 822.10106678 -982 821 C-982 820.67 -982 820.34 -982 820 C-973.50557463 820.27313265 -965.6572373 821.35863895 -957.42045593 823.32347107 C-951.46575683 824.72572894 -945.49294735 825.83222769 -939.4609375 826.84375 C-931.13809643 828.26553886 -922.8315453 829.75536502 -914.53515625 831.32421875 C-912.99393852 831.61538322 -912.99393852 831.61538322 -911.42158508 831.91242981 C-907.22992825 832.70572788 -903.03879567 833.50176136 -898.84790039 834.29907227 C-895.72321132 834.89287981 -892.59796703 835.48369351 -889.47265625 836.07421875 C-888.53615738 836.25337326 -887.59965851 836.43252777 -886.63478088 836.61711121 C-882.56485909 837.38502752 -878.52374928 838.08672014 -874.40795898 838.55786133 C-871 839 -871 839 -870 840 C-868.11071648 840.33145325 -866.21275488 840.6136863 -864.3125 840.875 C-859.65249742 841.55658218 -855.09042346 842.38747499 -850.5 843.4375 C-844.36641934 844.79130834 -838.21625935 845.7901806 -832 846.6875 C-831.10345703 846.81890381 -830.20691406 846.95030762 -829.28320312 847.08569336 C-824.81733987 847.71113264 -820.52291854 848.15621923 -816 848 C-820.75258787 843.14839988 -825.5484887 838.4343967 -830.703125 834.01171875 C-833.68824516 831.39720024 -836.59195728 828.69964473 -839.5 826 C-843.58008076 822.21594668 -847.69146355 818.4863574 -851.90234375 814.84765625 C-855.1898494 811.9519576 -858.40213743 808.97352937 -861.61352539 805.99389648 C-864.98805317 802.87725117 -868.45283757 799.91562016 -872 797 C-868.00535173 797 -865.89891733 798.91122081 -862.75 801.125 C-853.26018073 807.62882939 -843.40394916 813.51050914 -833.55664062 819.45214844 C-830.3993157 821.36366868 -827.26103416 823.30376775 -824.125 825.25 C-816.49333151 829.96217115 -808.74328795 834.47458142 -801 839 C-810.13326716 819.57805237 -819.99427084 800.67129618 -830.22485352 781.81030273 C-836.98669796 769.34406733 -836.98669796 769.34406733 -840.3125 763.125 C-840.69156494 762.42358887 -841.07062988 761.72217773 -841.46118164 760.99951172 C-844 756.23085408 -844 756.23085408 -844 754 C-844.66 754 -845.32 754 -846 754 C-846.54527344 752.8140625 -847.09054687 751.628125 -847.65234375 750.40625 C-853.42428257 737.96741792 -859.75507442 726.04282522 -866.82421875 714.296875 C-867.29093994 713.51715332 -867.75766113 712.73743164 -868.23852539 711.93408203 C-869.14773968 710.41984559 -870.06465322 708.91019983 -870.98999023 707.40576172 C-872.05366196 705.63878562 -873.03540658 703.82295408 -874 702 C-873.67 701.34 -873.34 700.68 -873 700 C-872.63390625 700.52464844 -872.2678125 701.04929687 -871.890625 701.58984375 C-863.91618431 713.00088864 -855.89475738 724.37921493 -847.78540039 735.69482422 C-845.55223779 738.81442966 -843.33401086 741.94367905 -841.1328125 745.0859375 C-835.27268121 753.44741451 -829.28737551 761.68896173 -823.1328125 769.8359375 C-819.71677903 774.36245296 -816.35760032 778.93006055 -813 783.5 C-803.47852106 796.44607671 -793.82897026 809.28579898 -784 822 C-784.34397701 810.29509205 -786.64409515 799.36941933 -789.25 788 C-789.66396839 786.15994766 -790.07704825 784.3196952 -790.48925781 782.47924805 C-791.47794948 778.07508274 -792.4774752 773.67348129 -793.48193359 769.27288818 C-794.17045912 766.25215278 -794.85121175 763.2296873 -795.53125 760.20703125 C-796.48775905 755.96496149 -797.45646258 751.7258299 -798.43066406 747.48779297 C-799.06087895 744.73398092 -799.68335973 741.9784867 -800.3046875 739.22265625 C-800.74469762 737.27341627 -801.18480056 735.32419724 -801.625 733.375 C-801.83310303 732.45251465 -802.04120605 731.5300293 -802.25561523 730.57958984 C-803.56689466 724.802374 -804.96345922 719.05690396 -806.51953125 713.33984375 C-807.03373012 710.83573707 -807.08634388 708.54941655 -807 706 C-804.59595225 708.40404775 -804.15973425 710.1399844 -803.15234375 713.37890625 C-802.79906006 714.51046143 -802.44577637 715.6420166 -802.08178711 716.80786133 C-801.70417236 718.04689209 -801.32655762 719.28592285 -800.9375 720.5625 C-800.74125031 721.20158295 -800.54500061 721.84066589 -800.34280396 722.49911499 C-793.03728587 746.31403746 -786.79002047 770.41727209 -780.82421875 794.59765625 C-780.52950684 795.79148926 -780.23479492 796.98532227 -779.93115234 798.21533203 C-779.25581721 800.96023117 -778.58479042 803.70602577 -777.91650391 806.45263672 C-777.55512073 807.92548216 -777.19363228 809.39830178 -776.83203125 810.87109375 C-776.57978035 811.91669212 -776.57978035 811.91669212 -776.32243347 812.9834137 C-775.71371462 816.26682375 -775.71371462 816.26682375 -774 819 C-773.8141333 818.14583496 -773.6282666 817.29166992 -773.43676758 816.41162109 C-772.71994958 813.11978078 -772.00221413 809.8281429 -771.28393555 806.53662109 C-770.97825186 805.13500361 -770.6728933 803.73331517 -770.36791992 802.33154297 C-769.91940191 800.27030047 -769.46970493 798.20931901 -769.01953125 796.1484375 C-768.78478844 795.07168259 -768.78478844 795.07168259 -768.54530334 793.97317505 C-767.65441767 789.90870415 -766.73701023 785.85179841 -765.78881836 781.80029297 C-762.73729613 768.72154087 -760.20898242 755.60994317 -757.9375 742.375 C-757.28329878 738.59055786 -756.62562468 734.80673627 -755.96484375 731.0234375 C-755.80325272 730.09788055 -755.64166168 729.17232361 -755.47517395 728.21871948 C-754.24265267 721.22555852 -752.8862673 714.26253974 -751.47363281 707.30377197 C-750.33442286 701.69186522 -749.2399188 696.07340772 -748.18359375 690.4453125 C-748.03838791 689.67238861 -747.89318207 688.89946472 -747.74357605 688.1031189 C-747.1598784 684.99092091 -746.57805635 681.87837583 -745.99731445 678.765625 C-745.56096303 676.42939223 -745.12291691 674.09348821 -744.68359375 671.7578125 C-744.54214935 671.00526184 -744.40070496 670.25271118 -744.25497437 669.47735596 C-743.38224332 664.88053213 -742.42452112 660.31033161 -741.41015625 655.7421875 C-740.17058251 650.07265501 -739.31837895 644.41075917 -738.54101562 638.66210938 C-737.64041973 632.56601804 -736.40922135 626.5360215 -735.19924927 620.4954834 C-732.48768658 606.9422749 -729.9434448 593.3650932 -727.5625 579.75 C-727.36557556 578.62398376 -727.36557556 578.62398376 -727.16467285 577.47521973 C-726.43866271 573.31757872 -725.71722143 569.15916748 -725 565 C-724.67 565 -724.34 565 -724 565 C-723.77348349 571.76313585 -724.66951695 578.08288334 -725.75 584.75 C-727.45957325 595.74850899 -728.81553717 606.74760748 -730 617.8125 C-731.21205341 629.10639664 -732.52493119 640.3697909 -734.0625 651.625 C-737.05652109 673.6296156 -739.42157763 695.67812403 -741.5546875 717.78076172 C-742.26536782 725.08472369 -743.01648357 732.36328131 -744.03125 739.6328125 C-745.05447946 747.04612738 -745.68603653 754.46195833 -746.26205444 761.92025757 C-747.3003108 775.33740475 -748.51716816 788.71420613 -750.08569336 802.08081055 C-750.77404885 808.10403669 -751.13332331 813.93696366 -751 820 C-750.28714844 819.21496094 -749.57429687 818.42992187 -748.83984375 817.62109375 C-744.19125068 812.51707518 -739.5309488 807.46875072 -734.6015625 802.6328125 C-732.86140423 800.85869992 -731.24399786 799.01013449 -729.625 797.125 C-727.03365795 794.1153247 -724.32745217 791.28911384 -721.5 788.5 C-718.71378859 785.7514401 -716.04691608 782.97140209 -713.5 780 C-710.24955349 776.20781241 -706.74550431 772.72864469 -703.19140625 769.22265625 C-700.57898932 766.5729856 -698.16697379 763.78827197 -695.74609375 760.96484375 C-693.34790999 758.26621639 -690.78388476 755.75685425 -688.1875 753.25 C-686.28973453 751.29801266 -684.50268548 749.30483681 -682.71875 747.25 C-679.08286605 743.0648655 -675.31369505 739.02287304 -671.5 735 C-670.08579329 733.50274037 -668.67173428 732.00534121 -667.2578125 730.5078125 C-666.19288574 729.38101074 -666.19288574 729.38101074 -665.10644531 728.23144531 C-661.8546949 724.78673058 -658.61404768 721.33165592 -655.375 717.875 C-654.76035889 717.21910889 -654.14571777 716.56321777 -653.51245117 715.88745117 C-644.51428767 706.28205691 -635.52585854 696.66851572 -626.61083984 686.98583984 C-622.57845741 682.61243003 -618.51071117 678.27287134 -614.4375 673.9375 C-608.2392742 667.33832769 -602.10235591 660.68788931 -596 654 C-594.18809796 652.02028069 -592.37571156 650.04101859 -590.5625 648.0625 C-589.88960937 647.32773438 -589.88960937 647.32773438 -589.203125 646.578125 C-586.77124108 643.92453087 -584.33299247 641.27705695 -581.88671875 638.63671875 C-575.61641502 631.88777666 -575.61641502 631.88777666 -569.5 625 C-564.9741733 619.77113226 -560.23701508 614.73482291 -555.53759766 609.66259766 C-553.16291915 607.09486812 -550.79953807 604.51685407 -548.4375 601.9375 C-547.98721436 601.44596436 -547.53692871 600.95442871 -547.07299805 600.44799805 C-545.71513106 598.96551592 -544.35752022 597.48279967 -543 596 C-541.18779908 594.02055919 -539.37534168 592.04135401 -537.5625 590.0625 C-537.11269775 589.57144775 -536.66289551 589.08039551 -536.19946289 588.57446289 C-533.27931177 585.38889062 -530.3495258 582.21240692 -527.41503906 579.04003906 C-521.89364702 573.07049344 -516.42389403 567.05849955 -511 561 C-502.87870575 551.94219614 -494.67071427 542.96679579 -486.41064453 534.03564453 C-480.89126821 528.06699624 -475.42481892 522.05492493 -470 516 C-468.45847359 514.2915401 -466.91680647 512.58320716 -465.375 510.875 C-462.76678838 507.97898572 -460.1793451 505.06857864 -457.625 502.125 C-454.17080696 498.15669451 -450.60869442 494.28987441 -447.04516602 490.42016602 C-444.512893 487.66561908 -442.00979797 484.89274925 -439.5625 482.0625 C-437.00284366 479.10385647 -434.36418962 476.23130118 -431.69580078 473.37133789 C-426.57641926 467.88355822 -421.72200294 462.28057032 -417.01953125 456.42578125 C-414.71562782 453.65842336 -412.2485608 451.15813877 -409.6640625 448.65625 C-407.3138242 446.31704569 -405.17990951 443.8111563 -403.015625 441.30078125 C-400.55519651 438.49226889 -398.03021422 435.74541506 -395.5 433 C-391.85812214 429.04429422 -388.26500055 425.05437863 -384.7421875 420.9921875 C-382.68499601 418.63979365 -380.59403085 416.31965034 -378.5 414 C-375.81016569 411.01937279 -373.13689636 408.02754767 -370.5 405 C-367.10505061 401.10209515 -363.64334116 397.26652943 -360.1796875 393.4296875 C-358.30854906 391.3439382 -356.46075169 389.24182372 -354.625 387.125 C-351.17283922 383.15902924 -347.61249119 379.29482354 -344.05175781 375.42675781 C-340.89550293 371.99245708 -337.79792941 368.5157942 -334.7421875 364.9921875 C-332.68499601 362.63979365 -330.59403085 360.31965034 -328.5 358 C-325.81016569 355.01937279 -323.13689636 352.02754767 -320.5 349 C-317.10746907 345.10487189 -313.64805799 341.27217237 -310.1875 337.4375 C-307.69938313 334.66502692 -305.24932536 331.86155151 -302.8046875 329.05078125 C-300.77041859 326.73911203 -298.6977769 324.4646857 -296.625 322.1875 C-293.55253227 318.78916448 -290.61557378 315.32409477 -287.75 311.75 C-283.65413373 306.6802914 -279.27534432 301.94482182 -274.80883789 297.20556641 C-270.66849249 292.78765934 -266.83621002 288.18362696 -263.05078125 283.45703125 C-260.50181778 280.40313026 -257.73599336 277.64981182 -254.88671875 274.87890625 C-252.44354956 272.44585371 -250.21405548 269.86132971 -247.96484375 267.25 C-245.60201019 264.54425024 -243.18097086 261.89433299 -240.75 259.25 C-240.28247314 258.74130371 -239.81494629 258.23260742 -239.33325195 257.70849609 C-238.37184553 256.66316905 -237.4101729 255.61808679 -236.44824219 254.57324219 C-234.08808305 252.0093741 -231.73088342 249.44279704 -229.375 246.875 C-228.91641602 246.37516602 -228.45783203 245.87533203 -227.98535156 245.36035156 C-224.4049854 241.45287129 -220.85931371 237.51522066 -217.3203125 233.5703125 C-214.68920217 230.65571553 -212.03347525 227.76460776 -209.375 224.875 C-206.3977736 221.63786909 -203.44047034 218.38862144 -200.5625 215.0625 C-196.93653017 210.87734446 -193.16356151 206.83239911 -189.39819336 202.77319336 C-186.76241007 199.92651445 -184.15541636 197.06644846 -181.625 194.125 C-177.59189795 189.45613802 -173.337526 184.99279499 -169.11816406 180.49316406 C-165.61551717 176.75114781 -162.17885118 172.97186254 -158.8359375 169.0859375 C-155.79904526 165.635511 -152.65888096 162.27968659 -149.52490234 158.91748047 C-146.82788931 156.01515226 -144.18381243 153.07754032 -141.5859375 150.0859375 C-138.03060541 146.00345568 -134.34507232 142.05709717 -130.625 138.125 C-126.53919394 133.78806635 -122.46542103 129.44790572 -118.5 125 C-113.93395625 119.88049641 -109.22726482 114.89687587 -104.52539062 109.90258789 C-100.25344444 105.35797578 -96.06457077 100.7533762 -91.9140625 96.09765625 C-89.58321522 93.54323791 -87.13891029 91.12489359 -84.671875 88.703125 C-82.90711374 86.90537755 -81.26556483 85.0364838 -79.625 83.125 C-77.03365795 80.1153247 -74.32745217 77.28911384 -71.5 74.5 C-68.83730372 71.87292508 -66.2873525 69.23270989 -63.875 66.375 C-59.72543377 61.52409863 -55.14803493 57.09649827 -50.59326172 52.63037109 C-47.48733511 49.56651486 -44.49669889 46.46899836 -41.65625 43.15625 C-36.56698156 37.25407254 -30.93098865 31.88724255 -25.3828125 26.421875 C-20.93693379 22.01653621 -16.65534601 17.55996978 -12.58154297 12.80859375 C-10.1965801 10.08123887 -7.64638099 7.53742117 -5.0625 5 C-4.56943359 4.51144531 -4.07636719 4.02289063 -3.56835938 3.51953125 C-2.38126771 2.34396475 -1.19099502 1.17161174 0 0 Z " fill="#F9F8F9" transform="translate(1159,86)"/>
<path d="M0 0 C2.40404775 2.40404775 2.84026575 4.1399844 3.84765625 7.37890625 C4.20093994 8.51046143 4.55422363 9.6420166 4.91821289 10.80786133 C5.29582764 12.04689209 5.67344238 13.28592285 6.0625 14.5625 C6.35687454 15.52112442 6.35687454 15.52112442 6.65719604 16.49911499 C11.48262087 32.22929549 15.8214029 48.08736892 20 64 C20.19458801 64.73863281 20.38917603 65.47726562 20.58966064 66.23828125 C21.76775206 70.71462002 22.93221443 75.19416867 24.07833862 79.67880249 C24.43994831 81.09021679 24.80442624 82.50089965 25.17190552 83.91079712 C25.67875321 85.86127418 26.17173716 87.81533804 26.6640625 89.76953125 C26.94717285 90.87917236 27.2302832 91.98881348 27.52197266 93.13208008 C28.18213108 97.09269348 27.70382266 98.98649537 25.4375 102.25 C24.963125 102.8275 24.48875 103.405 24 104 C24 103.34 24 102.68 24 102 C23.34 102 22.68 102 22 102 C21.75354736 100.87319824 21.50709473 99.74639648 21.25317383 98.58544922 C15.01164496 70.01421305 15.01164496 70.01421305 8.56933594 41.48779297 C7.93912105 38.73398092 7.31664027 35.9784867 6.6953125 33.22265625 C6.25530238 31.27341627 5.81519944 29.32419724 5.375 27.375 C5.16689697 26.45251465 4.95879395 25.5300293 4.74438477 24.57958984 C3.43310534 18.802374 2.03654078 13.05690396 0.48046875 7.33984375 C-0.03373012 4.83573707 -0.08634388 2.54941655 0 0 Z " fill="#E7E6E6" transform="translate(352,792)"/>
<path d="M0 0 C0.66 0.33 1.32 0.66 2 1 C-11.6332574 12.70615034 -11.6332574 12.70615034 -18 17 C-18.33 16.01 -18.66 15.02 -19 14 C-19.66 13.67 -20.32 13.34 -21 13 C-17.5497695 10.79951176 -14.08860159 8.61687009 -10.625 6.4375 C-9.64015625 5.80908203 -8.6553125 5.18066406 -7.640625 4.53320312 C-6.69960937 3.94345703 -5.75859375 3.35371094 -4.7890625 2.74609375 C-3.91975098 2.19622803 -3.05043945 1.6463623 -2.15478516 1.07983398 C-1.44370605 0.72348877 -0.73262695 0.36714355 0 0 Z " fill="#E3E3E3" transform="translate(235,1063)"/>
<path d="M0 0 C8.58 0 17.16 0 26 0 C26 0.33 26 0.66 26 1 C23.69 1.66 21.38 2.32 19 3 C19 3.99 19 4.98 19 6 C14.38 5.01 9.76 4.02 5 3 C5 2.34 5 1.68 5 1 C3.35 1 1.7 1 0 1 C0 0.67 0 0.34 0 0 Z " fill="#EDEDED" transform="translate(311,959)"/>
<path d="M0 0 C0.33 0.66 0.66 1.32 1 2 C-0.17633324 4.64972033 -1.40817981 7.18583676 -2.75 9.75 C-3.29140625 10.80574219 -3.29140625 10.80574219 -3.84375 11.8828125 C-4.55494203 13.26912161 -5.26907375 14.65392709 -5.98632812 16.03710938 C-7.35035348 18.67843016 -8.67727495 21.33780654 -10 24 C-11.32 23.67 -12.64 23.34 -14 23 C-12.72199484 19.55044666 -11.23881563 16.61909971 -9.1796875 13.57421875 C-8.64472656 12.77822266 -8.10976563 11.98222656 -7.55859375 11.16210938 C-7.00300781 10.34548828 -6.44742187 9.52886719 -5.875 8.6875 C-5.31167969 7.85154297 -4.74835938 7.01558594 -4.16796875 6.15429688 C-2.78279211 4.10000948 -1.39337781 2.04872962 0 0 Z " fill="#DCDBDC" transform="translate(486,746)"/>
<path d="M0 0 C3.20690144 2.99263186 5.55445913 6.13648249 7.9375 9.8125 C10.86624401 14.28499319 13.85592268 18.67689368 17 23 C16.01 24.32 15.02 25.64 14 27 C13.40832031 25.865625 12.81664062 24.73125 12.20703125 23.5625 C11.40901803 22.04158068 10.61083165 20.5207522 9.8125 19 C9.42513672 18.25621094 9.03777344 17.51242187 8.63867188 16.74609375 C6.26208853 12.22862127 3.73465537 7.89168176 0.92456055 3.62890625 C0 2 0 2 0 0 Z " fill="#C9C8C8" transform="translate(285,786)"/>
<path d="M0 0 C1.66645757 3.08549348 2.73761596 6.12675325 3.6875 9.5 C3.95949219 10.4384375 4.23148437 11.376875 4.51171875 12.34375 C5.00140894 15.00766466 4.88693174 16.47611372 4 19 C3.67 18.01 3.34 17.02 3 16 C1.68 16 0.36 16 -1 16 C-3.43326039 7.14223195 -3.43326039 7.14223195 -1.625 2.375 C-1.08875 1.59125 -0.5525 0.8075 0 0 Z " fill="#DADADA" transform="translate(365,833)"/>
<path d="M0 0 C3.89917968 1.61537444 6.71293772 4.27924873 9.75 7.125 C10.25660156 7.59292969 10.76320313 8.06085937 11.28515625 8.54296875 C12.52719141 9.69126541 13.76411494 10.84508672 15 12 C11.80971469 12 10.88744656 11.57516922 8.20703125 10.03125 C7.49482422 9.62519531 6.78261719 9.21914063 6.04882812 8.80078125 C5.31083984 8.37152344 4.57285156 7.94226563 3.8125 7.5 C3.06291016 7.07074219 2.31332031 6.64148438 1.54101562 6.19921875 C-0.30928339 5.13853779 -2.15508063 4.07001077 -4 3 C-2.68 2.01 -1.36 1.02 0 0 Z " fill="#D6D7D6" transform="translate(455,1001)"/>
<path d="M0 0 C6.2054142 0.48320848 11.99945246 1.33318124 18 3 C16.02 3.99 16.02 3.99 14 5 C13.67 4.34 13.34 3.68 13 3 C11.68 3 10.36 3 9 3 C9.33 4.65 9.66 6.3 10 8 C8.51882199 7.71872579 7.04006751 7.42466268 5.5625 7.125 C4.73878906 6.96257813 3.91507813 6.80015625 3.06640625 6.6328125 C2.38449219 6.42398438 1.70257813 6.21515625 1 6 C0.67 5.34 0.34 4.68 0 4 C0.66 3.67 1.32 3.34 2 3 C2 2.34 2 1.68 2 1 C1.34 0.67 0.68 0.34 0 0 Z " fill="#D0D0D0" transform="translate(218,913)"/>
<path d="M0 0 C7.93396732 -0.24923458 15.2441657 0.29005228 23 2 C23 2.33 23 2.66 23 3 C15.08 3 7.16 3 -1 3 C-0.67 2.01 -0.34 1.02 0 0 Z " fill="#C7C6C6" transform="translate(477,961)"/>
<path d="M0 0 C6.5705166 -0.24794402 12.56971459 0.67611771 19 2 C18.01 3.485 18.01 3.485 17 5 C13.9609375 5.29296875 13.9609375 5.29296875 10.375 5.1875 C9.18648438 5.16042969 7.99796875 5.13335938 6.7734375 5.10546875 C5.40058594 5.05326172 5.40058594 5.05326172 4 5 C4 3.68 4 2.36 4 1 C2.68 0.67 1.36 0.34 0 0 Z " fill="#E8E8E8" transform="translate(458,958)"/>
<path d="M0 0 C2 3 2 3 3 6 C1.90716423 7.03295436 0.80029421 8.05107835 -0.3125 9.0625 C-0.92738281 9.63097656 -1.54226563 10.19945312 -2.17578125 10.78515625 C-2.77777344 11.18605469 -3.37976563 11.58695313 -4 12 C-4.99 11.67 -5.98 11.34 -7 11 C-6.40716379 7.60807637 -5.23256811 5.7892243 -2.9375 3.25 C-2.38964844 2.63640625 -1.84179688 2.0228125 -1.27734375 1.390625 C-0.85582031 0.93171875 -0.43429687 0.4728125 0 0 Z " fill="#EBEBEB" transform="translate(281,1077)"/>
<path d="M0 0 C2.625 0.375 2.625 0.375 5 1 C5.625 3.375 5.625 3.375 6 6 C5.34 6.66 4.68 7.32 4 8 C1.375 7.625 1.375 7.625 -1 7 C-1.625 4.625 -1.625 4.625 -2 2 C-1.34 1.34 -0.68 0.68 0 0 Z " fill="#D0D0D0" transform="translate(151,988)"/>
<path d="M0 0 C2.625 0.375 2.625 0.375 5 1 C5.625 3.375 5.625 3.375 6 6 C5.34 6.66 4.68 7.32 4 8 C1.375 7.625 1.375 7.625 -1 7 C-1.625 4.625 -1.625 4.625 -2 2 C-1.34 1.34 -0.68 0.68 0 0 Z " fill="#CECECF" transform="translate(669,881)"/>
<path d="M0 0 C2 3 2 3 1.83984375 5.328125 C0.83837903 8.51418019 -0.61844416 10.95145255 -2.4375 13.75 C-3.05496094 14.71421875 -3.67242187 15.6784375 -4.30859375 16.671875 C-6 19 -6 19 -8 20 C-5.83836487 13.06001352 -3.1063786 6.56882431 0 0 Z " fill="#E1E1E2" transform="translate(454,799)"/>
<path d="M0 0 C3.50548832 1.91585034 4.84499181 4.20536831 6.95703125 7.5703125 C7.65441406 8.66601562 8.35179687 9.76171875 9.0703125 10.890625 C9.58980469 11.73367188 10.10929687 12.57671875 10.64453125 13.4453125 C10.31453125 14.1053125 9.98453125 14.7653125 9.64453125 15.4453125 C9.05285156 14.78144531 8.46117187 14.11757812 7.8515625 13.43359375 C3.88033295 8.99592288 -0.07526563 4.58744455 -4.35546875 0.4453125 C-2.35546875 -0.5546875 -2.35546875 -0.5546875 0 0 Z " fill="#D7D7D7" transform="translate(461.35546875,1040.5546875)"/>
<path d="M0 0 C1.258125 0.12375 2.51625 0.2475 3.8125 0.375 C4.87404297 0.47941406 4.87404297 0.47941406 5.95703125 0.5859375 C8 1 8 1 11 3 C11.99 3.33 12.98 3.66 14 4 C7.92193109 5.79172099 3.96758117 6.28545662 -2 4 C-1.34 2.68 -0.68 1.36 0 0 Z " fill="#E7E7E7" transform="translate(210,912)"/>
<path d="M0 0 C0.33 0 0.66 0 1 0 C1.66 4.95 2.32 9.9 3 15 C2.01 15.66 1.02 16.32 0 17 C-0.508783 15.44033782 -1.00663469 13.87710759 -1.5 12.3125 C-1.7784375 11.44238281 -2.056875 10.57226562 -2.34375 9.67578125 C-2.99850805 7.00608323 -3.11831495 4.73603316 -3 2 C-2.34 2 -1.68 2 -1 2 C-0.67 1.34 -0.34 0.68 0 0 Z " fill="#DADADB" transform="translate(437,1125)"/>
<path d="M0 0 C4.04547166 0.99005103 7.83502044 2.36849011 11.7109375 3.87890625 C12.44699219 4.16056641 13.18304687 4.44222656 13.94140625 4.73242188 C15.7415111 5.42207243 17.5389996 6.11854557 19.3359375 6.81640625 C15.84256932 7.98086231 14.70767601 7.58643623 11.23046875 6.6015625 C10.24755859 6.32763672 9.26464844 6.05371094 8.25195312 5.77148438 C7.22779297 5.47693359 6.20363281 5.18238281 5.1484375 4.87890625 C4.11267578 4.58822266 3.07691406 4.29753906 2.00976562 3.99804688 C-0.55040889 3.27836648 -3.10810161 2.55088505 -5.6640625 1.81640625 C-2.6640625 -0.18359375 -2.6640625 -0.18359375 0 0 Z " fill="#CECFCE" transform="translate(614.6640625,1032.18359375)"/>
<path d="M0 0 C0.33 3.96 0.66 7.92 1 12 C-0.32 11.67 -1.64 11.34 -3 11 C-3.66 8.03 -4.32 5.06 -5 2 C-1 0 -1 0 0 0 Z " fill="#EDECED" transform="translate(436,1116)"/>
<path d="M0 0 C2.125 0.375 2.125 0.375 4 1 C4.625 3.375 4.625 3.375 5 6 C4.34 6.66 3.68 7.32 3 8 C0.375 7.625 0.375 7.625 -2 7 C-2.125 4.625 -2.125 4.625 -2 2 C-1.34 1.34 -0.68 0.68 0 0 Z " fill="#D8D8D8" transform="translate(476,1089)"/>
<path d="M0 0 C2.375 -0.125 2.375 -0.125 5 0 C5.66 0.66 6.32 1.32 7 2 C6.625 4.125 6.625 4.125 6 6 C3.625 6.625 3.625 6.625 1 7 C0.34 6.34 -0.32 5.68 -1 5 C-0.625 2.375 -0.625 2.375 0 0 Z " fill="#D9D9D9" transform="translate(615,975)"/>
<path d="M0 0 C1.67542976 0.28604898 3.34385343 0.61781233 5 1 C5.625 3.375 5.625 3.375 6 6 C5.34 6.66 4.68 7.32 4 8 C0.46428571 7.46428571 0.46428571 7.46428571 -1 6 C-1.125 3.5 -1.125 3.5 -1 1 C-0.67 0.67 -0.34 0.34 0 0 Z " fill="#DADADA" transform="translate(322,781)"/>
<path d="M0 0 C2.5 0.125 2.5 0.125 3.5 1.125 C3.625 3.625 3.625 3.625 3.5 6.125 C2.5 7.125 2.5 7.125 0 7.25 C-2.5 7.125 -2.5 7.125 -3.5 6.125 C-3.625 3.625 -3.625 3.625 -3.5 1.125 C-2.5 0.125 -2.5 0.125 0 0 Z " fill="#EAEAEA" transform="translate(331.5,1093.875)"/>
<path d="M0 0 C2.5 0.125 2.5 0.125 3.5 1.125 C3.625 3.625 3.625 3.625 3.5 6.125 C2.5 7.125 2.5 7.125 0 7.25 C-2.5 7.125 -2.5 7.125 -3.5 6.125 C-3.625 3.625 -3.625 3.625 -3.5 1.125 C-2.5 0.125 -2.5 0.125 0 0 Z " fill="#E7E6E7" transform="translate(263.5,854.875)"/>
<path d="M0 0 C2.5 0.125 2.5 0.125 3.5 1.125 C3.54063832 2.79117115 3.542721 4.45888095 3.5 6.125 C1.5085944 6.50633299 -0.49279077 6.83825582 -2.5 7.125 C-3.5 6.125 -3.5 6.125 -3.625 3.625 C-3.45661291 0.25725827 -3.36774173 0.16838709 0 0 Z " fill="#DCDCDC" transform="translate(317.5,699.875)"/>
<path d="M0 0 C14.78132118 0.77904328 14.78132118 0.77904328 21 3 C20.67 3.99 20.34 4.98 20 6 C15.41105799 5.32930848 11.07452793 4.23877704 6.625 2.9375 C5.37976563 2.57527344 4.13453125 2.21304688 2.8515625 1.83984375 C1.91054687 1.56269531 0.96953125 1.28554688 0 1 C0 0.67 0 0.34 0 0 Z " fill="#BDBDBD" transform="translate(177,906)"/>
<path d="M0 0 C0.33 0.99 0.66 1.98 1 3 C-1.0885417 4.08294755 -3.07012055 5.0227418 -5.3125 5.75 C-9.10901044 7.51581881 -11.93143672 10.18788726 -15 13 C-13.47246728 9.4193319 -11.34422227 7.01439208 -8.625 4.25 C-7.85414062 3.45078125 -7.08328125 2.6515625 -6.2890625 1.828125 C-4 0 -4 0 0 0 Z " fill="#D8D7D9" transform="translate(1108,143)"/>
<path d="M0 0 C4.29 0 8.58 0 13 0 C11 5 11 5 9 6 C6.8359375 5.00390625 6.8359375 5.00390625 4.375 3.5625 C3.55773437 3.08941406 2.74046875 2.61632812 1.8984375 2.12890625 C1.27195312 1.75636719 0.64546875 1.38382813 0 1 C0 0.67 0 0.34 0 0 Z " fill="#1D1D1C" transform="translate(445,965)"/>
<path d="M0 0 C-0.33 0.99 -0.66 1.98 -1 3 C-3.89019227 4.30210767 -6.84512 4.81258139 -10 5 C-13.5625 3.625 -13.5625 3.625 -16 2 C-16 1.67 -16 1.34 -16 1 C-10.61509359 0.08342019 -5.45769811 -0.11138159 0 0 Z " fill="#D7D8D7" transform="translate(570,915)"/>
<path d="M0 0 C0 3 0 3 -1.28515625 4.54296875 C-1.87167969 5.08566406 -2.45820312 5.62835938 -3.0625 6.1875 C-6.96720654 9.91689319 -10.49420487 13.89747379 -14 18 C-14.99 17.67 -15.98 17.34 -17 17 C-11.39 11.39 -5.78 5.78 0 0 Z " fill="#C7C6C7" transform="translate(1159,86)"/>
<path d="M0 0 C0.33 0 0.66 0 1 0 C1.06058594 0.69867187 1.12117188 1.39734375 1.18359375 2.1171875 C1.26738281 3.02726562 1.35117187 3.93734375 1.4375 4.875 C1.55931641 6.23238281 1.55931641 6.23238281 1.68359375 7.6171875 C1.86989285 10.01110861 1.86989285 10.01110861 3 12 C2.58654153 14.57327298 2.11387845 17.08162024 1.5625 19.625 C1.41490234 20.33140625 1.26730469 21.0378125 1.11523438 21.765625 C0.74950507 23.51168749 0.37552879 25.25601884 0 27 C-0.33 27 -0.66 27 -1 27 C-1.15178302 17.94361322 -0.69037426 9.02417777 0 0 Z " fill="#B7B7B8" transform="translate(371,1093)"/>
<path d="M0 0 C1.32 0.33 2.64 0.66 4 1 C4.96891192 6.37305699 4.96891192 6.37305699 5 9 C3.5625 11 3.5625 11 2 12 C0.70756464 7.8803623 -0.26252625 4.33168317 0 0 Z " fill="#F6F6F6" transform="translate(365,848)"/>
<path d="M0 0 C3.96 1.32 7.92 2.64 12 4 C12 4.66 12 5.32 12 6 C6.80790596 6.21192221 2.873261 5.5912689 -2 4 C-1.34 2.68 -0.68 1.36 0 0 Z " fill="#E3E4E3" transform="translate(600,1027)"/>
<path d="M0 0 C2.625 0.375 2.625 0.375 5 1 C4.67 2.65 4.34 4.3 4 6 C2.35 6.33 0.7 6.66 -1 7 C-1.625 4.625 -1.625 4.625 -2 2 C-1.34 1.34 -0.68 0.68 0 0 Z " fill="#DFDFDF" transform="translate(281,1023)"/>
<path d="M0 0 C0.66 0.33 1.32 0.66 2 1 C-0.02845591 2.68536396 -2.07023465 4.34725396 -4.125 6 C-4.69476562 6.47695313 -5.26453125 6.95390625 -5.8515625 7.4453125 C-8.90934438 9.877639 -10.43094973 10.94815032 -14.4296875 11.3125 C-15.70199219 11.1578125 -15.70199219 11.1578125 -17 11 C-14.31063859 7.84628841 -11.01589596 6.27214091 -7.375 4.375 C-3.44826546 2.53887489 -3.44826546 2.53887489 0 0 Z " fill="#D8D8D9" transform="translate(520,881)"/>
<path d="M0 0 C0.66 0.33 1.32 0.66 2 1 C1.16855469 1.61488281 0.33710937 2.22976563 -0.51953125 2.86328125 C-1.61728343 3.67955851 -2.71493437 4.49597193 -3.8125 5.3125 C-4.35970703 5.71662109 -4.90691406 6.12074219 -5.47070312 6.53710938 C-7.66110844 8.16995698 -9.77074828 9.76650288 -11.6875 11.71875 C-13.75629839 13.73829129 -16.27369157 14.21239979 -19 15 C-15.22180665 10.99063612 -11.20415407 7.82729557 -6.6875 4.6875 C-6.04232422 4.23310547 -5.39714844 3.77871094 -4.73242188 3.31054688 C-3.15802858 2.20264048 -1.57944354 1.10069475 0 0 Z " fill="#DEDEDF" transform="translate(568,849)"/>
<path d="M0 0 C0.33 0.99 0.66 1.98 1 3 C0.34 3 -0.32 3 -1 3 C-1.433125 4.2065625 -1.433125 4.2065625 -1.875 5.4375 C-3 8 -3 8 -5 9 C-5.433125 9.804375 -5.86625 10.60875 -6.3125 11.4375 C-8.27286429 14.41434947 -9.64662411 15.00305041 -13 16 C-8.93866463 10.40636594 -4.6208599 5.14036486 0 0 Z " fill="#161616" transform="translate(575,786)"/>
<path d="M0 0 C0.66 0 1.32 0 2 0 C3.32 2.31 4.64 4.62 6 7 C5.01 7.99 4.02 8.98 3 10 C0.51280729 7.08025204 -0.58572305 4.83206182 -1 1 C-0.67 0.67 -0.34 0.34 0 0 Z " fill="#E3E3E3" transform="translate(301,810)"/>
<path d="M0 0 C0.69480469 0.25652344 1.38960938 0.51304687 2.10546875 0.77734375 C-0.95237033 3.18303706 -4.11911121 5.1392399 -7.51953125 7.02734375 C-8.96199219 7.83945312 -8.96199219 7.83945312 -10.43359375 8.66796875 C-11.65175781 9.21710937 -11.65175781 9.21710937 -12.89453125 9.77734375 C-13.55453125 9.44734375 -14.21453125 9.11734375 -14.89453125 8.77734375 C-13.01194962 7.23704969 -11.11639309 5.72129219 -9.20703125 4.21484375 C-8.67658203 3.77720703 -8.14613281 3.33957031 -7.59960938 2.88867188 C-4.88805007 0.77598456 -3.49666514 -0.26897424 0 0 Z " fill="#C4C4C4" transform="translate(323.89453125,999.22265625)"/>
<path d="M0 0 C1.4540625 0.0309375 1.4540625 0.0309375 2.9375 0.0625 C3.5 2 3.5 2 3.9375 4.0625 C2.9375 5.0625 2.9375 5.0625 -0.125 5.125 C-1.094375 5.104375 -2.06375 5.08375 -3.0625 5.0625 C-3.625 3.125 -3.625 3.125 -4.0625 1.0625 C-3.0625 0.0625 -3.0625 0.0625 0 0 Z " fill="#E7E7E7" transform="translate(250.0625,955.9375)"/>
<path d="M0 0 C1.40907283 2.81814566 0.50872691 4.17277204 -0.4375 7.125 C-0.72496094 8.03507813 -1.01242187 8.94515625 -1.30859375 9.8828125 C-1.53675781 10.58148437 -1.76492188 11.28015625 -2 12 C-4.14418558 8.78372163 -4.67582137 6.80909895 -5 3 C-4.34 2.34 -3.68 1.68 -3 1 C-2.34 1 -1.68 1 -1 1 C-0.67 0.67 -0.34 0.34 0 0 Z " fill="#201E1F" transform="translate(387,895)"/>
<path d="M0 0 C0.33 0.66 0.66 1.32 1 2 C1.66 2 2.32 2 3 2 C3 4.64 3 7.28 3 10 C1.68 10 0.36 10 -1 10 C-1.33 7.69 -1.66 5.38 -2 3 C-1.34 3 -0.68 3 0 3 C0 2.01 0 1.02 0 0 Z " fill="#F0F0F0" transform="translate(372,867)"/>
<path d="M0 0 C0.66 0.66 1.32 1.32 2 2 C-5.28399258 10.68572311 -5.28399258 10.68572311 -9 14 C-9.99 14 -10.98 14 -12 14 C-10.18804029 11.85370835 -8.37545906 9.70794722 -6.5625 7.5625 C-6.04623047 6.95083984 -5.52996094 6.33917969 -4.99804688 5.70898438 C-1.11328125 1.11328125 -1.11328125 1.11328125 0 0 Z " fill="#1D1E1E" transform="translate(934,352)"/>
<path d="M0 0 C3.03852705 1.40976705 5.5939595 3.08870228 8.25 5.125 C8.95640625 5.66382813 9.6628125 6.20265625 10.390625 6.7578125 C10.92171875 7.16773438 11.4528125 7.57765625 12 8 C11.01 8.33 10.02 8.66 9 9 C8.67 9.66 8.34 10.32 8 11 C6.84852339 9.73427767 5.70400686 8.46222094 4.5625 7.1875 C3.92441406 6.47980469 3.28632813 5.77210937 2.62890625 5.04296875 C1 3 1 3 0 0 Z " fill="#D0D0D0" transform="translate(488,1034)"/>
<path d="M0 0 C-0.19140625 1.82421875 -0.19140625 1.82421875 -1 4 C-3.21484375 5.51953125 -3.21484375 5.51953125 -5.9375 6.8125 C-6.83339844 7.25207031 -7.72929688 7.69164062 -8.65234375 8.14453125 C-9.42707031 8.42683594 -10.20179688 8.70914063 -11 9 C-11.66 8.67 -12.32 8.34 -13 8 C-11.2126038 6.66094733 -9.41995047 5.32890934 -7.625 4 C-6.62726562 3.2575 -5.62953125 2.515 -4.6015625 1.75 C-2 0 -2 0 0 0 Z " fill="#F4F4F4" transform="translate(570,851)"/>
<path d="M0 0 C2.49551158 2.49551158 3.07575992 4.66076626 4.1875 8 C4.55230469 9.0725 4.91710937 10.145 5.29296875 11.25 C6 14 6 14 5 16 C4.34 16.33 3.68 16.66 3 17 C2.49255577 15.10614563 1.99435426 13.20981334 1.5 11.3125 C1.2215625 10.25675781 0.943125 9.20101562 0.65625 8.11328125 C0.0608285 5.28857328 -0.12786492 2.87163292 0 0 Z " fill="#A7A7A8" transform="translate(352,792)"/>
<path d="M0 0 C1.2065625 0.0309375 1.2065625 0.0309375 2.4375 0.0625 C3.0975 1.3825 3.7575 2.7025 4.4375 4.0625 C3.4375 5.0625 3.4375 5.0625 0.375 5.125 C-0.594375 5.104375 -1.56375 5.08375 -2.5625 5.0625 C-3.125 3.125 -3.125 3.125 -3.5625 1.0625 C-2.5625 0.0625 -2.5625 0.0625 0 0 Z " fill="#E1E1E1" transform="translate(546.5625,962.9375)"/>
<path d="M0 0 C1 4 1 4 0 6 C-0.66 6 -1.32 6 -2 6 C-2 6.99 -2 7.98 -2 9 C-4.375 10.75 -4.375 10.75 -7 12 C-7.66 11.67 -8.32 11.34 -9 11 C-6.03 7.37 -3.06 3.74 0 0 Z " fill="#252524" transform="translate(485,894)"/>
<path d="M0 0 C0.66 0.33 1.32 0.66 2 1 C-2.95 4.3 -7.9 7.6 -13 11 C-13.33 9.68 -13.66 8.36 -14 7 C-11.71296692 5.80274117 -9.42115138 4.61702982 -7.125 3.4375 C-6.14853516 2.92413086 -6.14853516 2.92413086 -5.15234375 2.40039062 C-3.46470143 1.53917109 -1.73420407 0.76313297 0 0 Z " fill="#CDCDCD" transform="translate(618,822)"/>
<path d="M0 0 C0.66 0.33 1.32 0.66 2 1 C1.39301257 5.12751449 -0.03810791 8.3321148 -2 12 C-2.66 11.67 -3.32 11.34 -4 11 C-4.56638908 6.18569279 -2.82561627 3.79692186 0 0 Z " fill="#F4F4F4" transform="translate(473,768)"/>
<path d="M0 0 C0.33 0 0.66 0 1 0 C1.84681133 5.08086796 2.09038099 9.84828377 2 15 C-2.875 10.25 -2.875 10.25 -4 8 C-3.01 8 -2.02 8 -1 8 C-0.67 5.36 -0.34 2.72 0 0 Z " fill="#272627" transform="translate(374,894)"/>
<path d="M0 0 C3.89006773 1.38780795 6.96558708 3.2152227 10.3125 5.625 C11.19550781 6.25664063 12.07851563 6.88828125 12.98828125 7.5390625 C13.65214844 8.02117188 14.31601562 8.50328125 15 9 C13.02 9.99 13.02 9.99 11 11 C9.16365304 9.35742342 7.3308593 7.71117305 5.5 6.0625 C4.97535156 5.59392578 4.45070313 5.12535156 3.91015625 4.64257812 C2.5878256 3.44904592 1.29166061 2.22665821 0 1 C0 0.67 0 0.34 0 0 Z " fill="#BAB9B9" transform="translate(287,882)"/>
<path d="M0 0 C-4.625 4.875 -4.625 4.875 -8 6 C-8.33 5.01 -8.66 4.02 -9 3 C-9.66 2.34 -10.32 1.68 -11 1 C-7.32589215 -0.17571451 -3.83070817 -0.07366746 0 0 Z " fill="#201F20" transform="translate(346,980)"/>
<path d="M0 0 C0.66 0 1.32 0 2 0 C2 2.31 2 4.62 2 7 C1.01 7 0.02 7 -1 7 C-2.68798827 8.43750191 -2.68798827 8.43750191 -4 10 C-3.43697042 6.05879291 -2.3208055 3.2491277 0 0 Z " fill="#E6E6E6" transform="translate(424,720)"/>
<path d="M0 0 C0.33 0.66 0.66 1.32 1 2 C-0.80831392 5.61662784 -3.05278838 8.25604436 -6 11 C-6.99 10.67 -7.98 10.34 -9 10 C-6.03 6.7 -3.06 3.4 0 0 Z " fill="#111111" transform="translate(1157,90)"/>
<path d="M0 0 C-1.20381448 2.49361571 -2.45428722 4.68143083 -4 7 C-4.66 7 -5.32 7 -6 7 C-6.33 7.99 -6.66 8.98 -7 10 C-9.0625 10.6875 -9.0625 10.6875 -11 11 C-10.06558465 9.72689688 -9.12732889 8.456612 -8.1875 7.1875 C-7.66542969 6.47980469 -7.14335938 5.77210938 -6.60546875 5.04296875 C-2.64244742 0 -2.64244742 0 0 0 Z " fill="#E5E3E5" transform="translate(741,546)"/>
<path d="M0 0 C0 0.33 0 0.66 0 1 C-2.24743045 1.53181175 -4.49807102 2.05007126 -6.75 2.5625 C-8.62945312 2.99755859 -8.62945312 2.99755859 -10.546875 3.44140625 C-13.59473748 3.93444283 -15.17641828 4.07666879 -18 3 C-6.66287016 -1.77676538 -6.66287016 -1.77676538 0 0 Z " fill="#C3C3C2" transform="translate(232,1001)"/>
<path d="M0 0 C2.96951828 2.74925181 4.02783286 5.03031752 5 9 C4.625 11.375 4.625 11.375 4 13 C3.67 12.01 3.34 11.02 3 10 C2.34 9.67 1.68 9.34 1 9 C0.5859375 6.93359375 0.5859375 6.93359375 0.375 4.4375 C0.30023438 3.61121094 0.22546875 2.78492188 0.1484375 1.93359375 C0.09945313 1.29550781 0.05046875 0.65742187 0 0 Z " fill="#CBCBCB" transform="translate(356,807)"/>
<path d="M0 0 C0.33 0.99 0.66 1.98 1 3 C-2 6 -5 9 -8 12 C-8.66 11.67 -9.32 11.34 -10 11 C-8.89718873 9.72799029 -7.79269231 8.45744147 -6.6875 7.1875 C-6.07261719 6.47980469 -5.45773437 5.77210938 -4.82421875 5.04296875 C-3.26665665 3.29863261 -1.67341125 1.63221959 0 0 Z " fill="#E1E0E1" transform="translate(564,739)"/>
<path d="M0 0 C0.66 0.33 1.32 0.66 2 1 C1.43410156 1.62648438 0.86820313 2.25296875 0.28515625 2.8984375 C-0.44832031 3.71570313 -1.18179688 4.53296875 -1.9375 5.375 C-2.66839844 6.18710937 -3.39929688 6.99921875 -4.15234375 7.8359375 C-6.02989471 9.85924167 -6.02989471 9.85924167 -7 12 C-7.99 11.67 -8.98 11.34 -10 11 C-8.89718873 9.72799029 -7.79269231 8.45744147 -6.6875 7.1875 C-6.07261719 6.47980469 -5.45773437 5.77210938 -4.82421875 5.04296875 C-3.26665665 3.29863261 -1.67341125 1.63221959 0 0 Z " fill="#DFDDDF" transform="translate(575,727)"/>
<path d="M0 0 C0 3.19598122 -0.3723873 4.32532435 -2 7 C-3.7265625 8.703125 -3.7265625 8.703125 -5.625 10.25 C-6.25664063 10.77078125 -6.88828125 11.2915625 -7.5390625 11.828125 C-8.02117188 12.21484375 -8.50328125 12.6015625 -9 13 C-9.66 12.67 -10.32 12.34 -11 12 C-10.45730469 11.46890625 -9.91460938 10.9378125 -9.35546875 10.390625 C-8.64003906 9.68421875 -7.92460938 8.9778125 -7.1875 8.25 C-6.47980469 7.55390625 -5.77210938 6.8578125 -5.04296875 6.140625 C-3.17724121 4.18571355 -1.56830358 2.19661447 0 0 Z " fill="#DFDDDF" transform="translate(693,597)"/>
<path d="M0 0 C1.8125 1.25 1.8125 1.25 2.8125 3.25 C2.1525 3.25 1.4925 3.25 0.8125 3.25 C0.8125 3.91 0.8125 4.57 0.8125 5.25 C-2.10267292 4.17598892 -3.96560176 3.47189824 -6.1875 1.25 C-2.76721014 -0.94875776 -2.76721014 -0.94875776 0 0 Z " fill="#E1E1E1" transform="translate(457.1875,1001.75)"/>
<path d="M0 0 C4.455 0.99 4.455 0.99 9 2 C5.3558226 4.4294516 3.28758728 4.16179575 -1 4 C-0.67 2.68 -0.34 1.36 0 0 Z " fill="#222322" transform="translate(326,952)"/>
<path d="M0 0 C0 4.24170573 -1.83750763 6.75139708 -4.6875 9.8125 C-5.120625 10.204375 -5.55375 10.59625 -6 11 C-6.99 10.67 -7.98 10.34 -9 10 C-6.03 6.7 -3.06 3.4 0 0 Z " fill="#E3E2E3" transform="translate(940,321)"/>
<path d="M0 0 C0.99 0.495 0.99 0.495 2 1 C2.703125 3.21484375 2.703125 3.21484375 3.25 5.9375 C3.44078125 6.83339844 3.6315625 7.72929688 3.828125 8.65234375 C3.88484375 9.42707031 3.9415625 10.20179688 4 11 C3.34 11.66 2.68 12.32 2 13 C-0.28571429 4.57142857 -0.28571429 4.57142857 0 0 Z " fill="#FBFBFB" transform="translate(358,816)"/>
<path d="M0 0 C0 3.83764027 -1.26535335 5.11486085 -3.5 8.1875 C-4.1496875 9.08855469 -4.799375 9.98960937 -5.46875 10.91796875 C-5.9740625 11.60503906 -6.479375 12.29210937 -7 13 C-7.99 12.34 -8.98 11.68 -10 11 C-9.52949219 10.54109375 -9.05898438 10.0821875 -8.57421875 9.609375 C-3.96631602 5.08450705 -3.96631602 5.08450705 0 0 Z " fill="#DFDEE0" transform="translate(968,290)"/>
<path d="M0 0 C0.99 1.32 1.98 2.64 3 4 C3.66 3.34 4.32 2.68 5 2 C4.67 4.64 4.34 7.28 4 10 C3.01 10 2.02 10 1 10 C-0.1577506 6.52674819 -0.06866652 3.63932552 0 0 Z " fill="#D2D1D1" transform="translate(372,1085)"/>
<path d="M0 0 C2.70438996 0.36405249 3.74406383 0.68142682 5.484375 2.84765625 C5.90203125 3.57855469 6.3196875 4.30945313 6.75 5.0625 C7.39195312 6.16271484 7.39195312 6.16271484 8.046875 7.28515625 C8.36140625 7.85105469 8.6759375 8.41695312 9 9 C8.01 9 7.02 9 6 9 C4.39453125 7.03125 4.39453125 7.03125 2.8125 4.5 C2.28269531 3.6646875 1.75289063 2.829375 1.20703125 1.96875 C0.80871094 1.3190625 0.41039062 0.669375 0 0 Z " fill="#181818" transform="translate(360,889)"/>
<path d="M0 0 C0.8125 1.6875 0.8125 1.6875 1 4 C-1.1875 6.5 -1.1875 6.5 -4 9 C-5.1446875 10.1446875 -5.1446875 10.1446875 -6.3125 11.3125 C-6.869375 11.869375 -7.42625 12.42625 -8 13 C-8.66 12.67 -9.32 12.34 -10 12 C-9.44570313 11.38511719 -8.89140625 10.77023437 -8.3203125 10.13671875 C-7.59585938 9.32847656 -6.87140625 8.52023437 -6.125 7.6875 C-5.40570312 6.88699219 -4.68640625 6.08648437 -3.9453125 5.26171875 C-1.88394498 2.95810917 -1.88394498 2.95810917 0 0 Z " fill="#222223" transform="translate(905,386)"/>
<path d="M0 0 C0.33 1.32 0.66 2.64 1 4 C-1.97 6.475 -1.97 6.475 -5 9 C-5.66 8.67 -6.32 8.34 -7 8 C-4.69 5.36 -2.38 2.72 0 0 Z " fill="#E1E0E1" transform="translate(281,1077)"/>
<path d="M0 0 C0.66 0.33 1.32 0.66 2 1 C0.77472971 5.05281712 -0.69880494 8.44360764 -3 12 C-4.21386936 8.35839192 -3.6674695 7.66834531 -2.0625 4.3125 C-1.49208984 3.10013672 -1.49208984 3.10013672 -0.91015625 1.86328125 C-0.60980469 1.24839844 -0.30945313 0.63351562 0 0 Z " fill="#909091" transform="translate(353,1043)"/>
<path d="M0 0 C2.125 0.9375 2.125 0.9375 4 2 C3.01 2.99 2.02 3.98 1 5 C1.66 5.33 2.32 5.66 3 6 C0.69 5.67 -1.62 5.34 -4 5 C-2.25 1.125 -2.25 1.125 0 0 Z " fill="#D5D5D4" transform="translate(584,1021)"/>
<path d="M0 0 C0 0.66 0 1.32 0 2 C-2.64 2 -5.28 2 -8 2 C-8.33 1.01 -8.66 0.02 -9 -1 C-5.79937313 -2.60031344 -3.27728194 -1.03173691 0 0 Z " fill="#F1F1F1" transform="translate(256,995)"/>
<path d="M0 0 C1.42944945 2.35438733 2.08661261 3.48032433 1.625 6.25 C1.41875 6.8275 1.2125 7.405 1 8 C-0.32 8 -1.64 8 -3 8 C-3.33 6.68 -3.66 5.36 -4 4 C-3.01 3.67 -2.02 3.34 -1 3 C-0.67 2.01 -0.34 1.02 0 0 Z " fill="#CFCECF" transform="translate(375,873)"/>
<path d="M0 0 C0.33 0.66 0.66 1.32 1 2 C-0.76227632 5.61730402 -2.64326421 7.80075931 -6 10 C-6.66 9.67 -7.32 9.34 -8 9 C-5.36 6.03 -2.72 3.06 0 0 Z " fill="#DFDEDF" transform="translate(754,529)"/>
<path d="M0 0 C0.99 0.33 1.98 0.66 3 1 C0 4 -3 7 -6 10 C-6 6.41087588 -5.33563446 5.89142971 -3 3.3125 C-2.443125 2.68988281 -1.88625 2.06726563 -1.3125 1.42578125 C-0.879375 0.95527344 -0.44625 0.48476563 0 0 Z " fill="#1F1E1F" transform="translate(989,286)"/>
<path d="M0 0 C0.66 0.66 1.32 1.32 2 2 C0.35 3.98 -1.3 5.96 -3 8 C-3.66 7.67 -4.32 7.34 -5 7 C-3.70700306 4.11562221 -2.34058637 2.12780579 0 0 Z " fill="#E4E4E4" transform="translate(1116,133)"/>
<path d="M0 0 C2 1 2 1 2.6328125 2.84765625 C2.79523438 3.57855469 2.95765625 4.30945313 3.125 5.0625 C3.29257812 5.79597656 3.46015625 6.52945313 3.6328125 7.28515625 C3.75398438 7.85105469 3.87515625 8.41695312 4 9 C2.35 8.01 0.7 7.02 -1 6 C-0.67 4.02 -0.34 2.04 0 0 Z " fill="#333333" transform="translate(395,1011)"/>
<path d="M0 0 C0.66 1.32 1.32 2.64 2 4 C0.35 6.31 -1.3 8.62 -3 11 C-3.33 10.34 -3.66 9.68 -4 9 C-3.22265625 6.8359375 -3.22265625 6.8359375 -2.0625 4.375 C-1.68222656 3.55773437 -1.30195313 2.74046875 -0.91015625 1.8984375 C-0.60980469 1.27195312 -0.30945313 0.64546875 0 0 Z " fill="#D1D1D3" transform="translate(450,808)"/>
<path d="M0 0 C-1.5830577 4.2742558 -4.50568404 6.26531794 -8 9 C-8.66 8.67 -9.32 8.34 -10 8 C-8.71451591 6.66070495 -7.42141845 5.32871357 -6.125 4 C-5.04605469 2.88625 -5.04605469 2.88625 -3.9453125 1.75 C-2 0 -2 0 0 0 Z " fill="#E1E0E2" transform="translate(588,715)"/>
<path d="M0 0 C0.99 0.33 1.98 0.66 3 1 C1.35 2.65 -0.3 4.3 -2 6 C-2.99 5.67 -3.98 5.34 -5 5 C-3.35 3.35 -1.7 1.7 0 0 Z " fill="#ECECED" transform="translate(793,486)"/>
<path d="M0 0 C0.66 0.33 1.32 0.66 2 1 C-0.51407619 5.28324091 -2.12314139 7.64531705 -7 9 C-6.02180976 7.68677212 -5.0424189 6.37443848 -4.0625 5.0625 C-3.51722656 4.33160156 -2.97195313 3.60070312 -2.41015625 2.84765625 C-1 1 -1 1 0 0 Z " fill="#1D1D1D" transform="translate(974,304)"/>
<path d="M0 0 C2.97 0.495 2.97 0.495 6 1 C5.67 1.99 5.34 2.98 5 4 C2.03 3.505 2.03 3.505 -1 3 C-0.67 2.01 -0.34 1.02 0 0 Z " fill="#F9F9F9" transform="translate(586,1023)"/>
<path d="M0 0 C1.2077558 3.62326739 0.54311128 4.64146369 -1 8 C-2.32 7.01 -3.64 6.02 -5 5 C-3.35 3.35 -1.7 1.7 0 0 Z " fill="#202021" transform="translate(365,1006)"/>
<path d="M0 0 C0.66 0.33 1.32 0.66 2 1 C1.01 2.485 1.01 2.485 0 4 C-0.66 4 -1.32 4 -2 4 C-2 4.99 -2 5.98 -2 7 C-3.65 7 -5.3 7 -7 7 C-4.66666667 4.66666667 -2.33333333 2.33333333 0 0 Z " fill="#323231" transform="translate(459,930)"/>
<path d="M0 0 C0.66 0.66 1.32 1.32 2 2 C0.35 3.32 -1.3 4.64 -3 6 C-3.66 5.01 -4.32 4.02 -5 3 C-4 1 -4 1 -2.0625 0.25 C-1.381875 0.1675 -0.70125 0.085 0 0 Z " fill="#ECECEC" transform="translate(505,891)"/>
<path d="M0 0 C1.3079635 2.15429283 2.05130331 3.45276464 1.8125 6 C0.86632381 8.32904908 -0.40941599 10.06363686 -2 12 C-2.625 10.1875 -2.625 10.1875 -3 8 C-2.34 7.01 -1.68 6.02 -1 5 C-0.61500109 3.34450469 -0.27206865 1.6777567 0 0 Z " fill="#CBCBCB" transform="translate(370,852)"/>
<path d="M0 0 C0.66 0.33 1.32 0.66 2 1 C1.34 2.98 0.68 4.96 0 7 C-0.66 7 -1.32 7 -2 7 C-2 6.34 -2 5.68 -2 5 C-2.99 4.67 -3.98 4.34 -5 4 C-4.0409375 3.8453125 -4.0409375 3.8453125 -3.0625 3.6875 C-2.381875 3.460625 -1.70125 3.23375 -1 3 C-0.67 2.01 -0.34 1.02 0 0 Z " fill="#F6F6F6" transform="translate(585,839)"/>
<path d="M0 0 C0.66 0.66 1.32 1.32 2 2 C-0.64 4.31 -3.28 6.62 -6 9 C-6.66 8.67 -7.32 8.34 -8 8 C-5.36 5.36 -2.72 2.72 0 0 Z " fill="#E3E2E3" transform="translate(527,779)"/>
<path d="M0 0 C0.66 0.66 1.32 1.32 2 2 C0.35 3.98 -1.3 5.96 -3 8 C-3.99 7.67 -4.98 7.34 -6 7 C-4.02 4.69 -2.04 2.38 0 0 Z " fill="#E8E7E8" transform="translate(729,557)"/>
<path d="M0 0 C0.33 0.66 0.66 1.32 1 2 C0.26418258 3.1549921 -0.48930039 4.29874185 -1.25 5.4375 C-1.66765625 6.07558594 -2.0853125 6.71367187 -2.515625 7.37109375 C-4.27248877 9.29902057 -5.46089803 9.61479436 -8 10 C-7.04367001 8.70684939 -6.08486149 7.41553147 -5.125 6.125 C-4.59132813 5.40570313 -4.05765625 4.68640625 -3.5078125 3.9453125 C-2 2 -2 2 0 0 Z " fill="#DDDCDD" transform="translate(780,500)"/>
<path d="M0 0 C-0.33 0.99 -0.66 1.98 -1 3 C-3.64 3 -6.28 3 -9 3 C-8 1 -8 1 -6.1875 0.375 C-4 0 -4 0 0 0 Z " fill="#E7E8E8" transform="translate(237,998)"/>
<path d="M0 0 C-0.66 0 -1.32 0 -2 0 C-2.33 0.66 -2.66 1.32 -3 2 C-6.64653273 3.11421833 -9.33291043 2.94296589 -13 2 C-8.62836676 -0.42868513 -4.86219789 -1.62073263 0 0 Z " fill="#A2A2A2" transform="translate(539,921)"/>
<path d="M0 0 C1.74627478 2.61941217 2.38722388 4.03824877 3 7 C0.08482708 5.92598892 -1.77810176 5.22189824 -4 3 C-2.68 2.67 -1.36 2.34 0 2 C0 1.34 0 0.68 0 0 Z " fill="#323233" transform="translate(355,918)"/>
<path d="M0 0 C0.66 0.33 1.32 0.66 2 1 C-2.455 4.465 -2.455 4.465 -7 8 C-7.99 7.34 -8.98 6.68 -10 6 C-8.3811004 4.96951963 -6.75467511 3.95085322 -5.125 2.9375 C-4.22007812 2.36902344 -3.31515625 1.80054688 -2.3828125 1.21484375 C-1.20332031 0.61349609 -1.20332031 0.61349609 0 0 Z " fill="#B8B8B8" transform="translate(520,881)"/>
<path d="M0 0 C1.1875 1.6875 1.1875 1.6875 2 4 C0.625 6.75 0.625 6.75 -1 9 C-1.66 8.34 -2.32 7.68 -3 7 C-2.61121812 3.98694043 -1.73543126 2.60314689 0 0 Z " fill="#F3F3F3" transform="translate(458,795)"/>
<path d="M0 0 C0.99 0.33 1.98 0.66 3 1 C-0.19990508 3.74277578 -3.00499382 5.6302836 -7 7 C-4.66666667 4.66666667 -2.33333333 2.33333333 0 0 Z " fill="#C7C6C7" transform="translate(180,1102)"/>
<path d="M0 0 C1.65 0 3.3 0 5 0 C5 1.65 5 3.3 5 5 C4.01 5.495 4.01 5.495 3 6 C2.01 5.67 1.02 5.34 0 5 C0 4.34 0 3.68 0 3 C0.66 3 1.32 3 2 3 C2.33 2.34 2.66 1.68 3 1 C2.01 0.67 1.02 0.34 0 0 Z " fill="#E0E0E0" transform="translate(330,1095)"/>
<path d="M0 0 C0.99 0.33 1.98 0.66 3 1 C3 1.99 3 2.98 3 4 C1.35 4.33 -0.3 4.66 -2 5 C-1.34 3.35 -0.68 1.7 0 0 Z " fill="#F4F4F4" transform="translate(194,1091)"/>
<path d="M0 0 C0 0.99 0 1.98 0 3 C-4.455 2.01 -4.455 2.01 -9 1 C-9 0.67 -9 0.34 -9 0 C-5.62182575 -0.84454356 -3.32534757 -1.10844919 0 0 Z " fill="#C5C5C5" transform="translate(330,962)"/>
<path d="M0 0 C4.51617599 -0.07654536 8.59085217 -0.10228696 13 1 C13 1.33 13 1.66 13 2 C8.545 2.495 8.545 2.495 4 3 C4 2.34 4 1.68 4 1 C2.68 0.67 1.36 0.34 0 0 Z " fill="#A0A09F" transform="translate(458,958)"/>
<path d="M0 0 C0.66 0.33 1.32 0.66 2 1 C1.49396008 3.16874252 1.00016187 4.99967627 0 7 C-0.66 7 -1.32 7 -2 7 C-2.125 4.625 -2.125 4.625 -2 2 C-1.34 1.34 -0.68 0.68 0 0 Z " fill="#ECECEC" transform="translate(461,791)"/>
<path d="M0 0 C0.66 0.66 1.32 1.32 2 2 C0.35 3.98 -1.3 5.96 -3 8 C-3.33 7.01 -3.66 6.02 -4 5 C-2.0625 2.3125 -2.0625 2.3125 0 0 Z " fill="#121112" transform="translate(279,1076)"/>
<path d="M0 0 C0.66 0.33 1.32 0.66 2 1 C-0.64 2.98 -3.28 4.96 -6 7 C-6.66 6.34 -7.32 5.68 -8 5 C-6.71475739 4.13619741 -5.42157581 3.28419631 -4.125 2.4375 C-3.04605469 1.72400391 -3.04605469 1.72400391 -1.9453125 0.99609375 C-1.30335938 0.66738281 -0.66140625 0.33867188 0 0 Z " fill="#C6C5C6" transform="translate(235,1063)"/>
<path d="M0 0 C0.33 0.66 0.66 1.32 1 2 C1.99 2 2.98 2 4 2 C4.33 1.34 4.66 0.68 5 0 C4.67 1.32 4.34 2.64 4 4 C2.35 4.33 0.7 4.66 -1 5 C-0.67 3.35 -0.34 1.7 0 0 Z " fill="#E5E5E5" transform="translate(281,1025)"/>
<path d="M0 0 C-0.33 0.99 -0.66 1.98 -1 3 C-4.0625 4.1875 -4.0625 4.1875 -7 5 C-7.33 4.34 -7.66 3.68 -8 3 C-2.25 0 -2.25 0 0 0 Z " fill="#191818" transform="translate(340,994)"/>
<path d="M0 0 C0.66 0.33 1.32 0.66 2 1 C-0.3125 3.5 -0.3125 3.5 -3 6 C-3.99 6 -4.98 6 -6 6 C-4 4 -2 2 0 0 Z " fill="#E2E1E2" transform="translate(343,982)"/>
<path d="M0 0 C0.33 0 0.66 0 1 0 C1 1.65 1 3.3 1 5 C1.99 5.33 2.98 5.66 4 6 C2.68 7.32 1.36 8.64 0 10 C0 6.7 0 3.4 0 0 Z " fill="#454444" transform="translate(407,897)"/>
<path d="M0 0 C1.32 0 2.64 0 4 0 C4 1.65 4 3.3 4 5 C2.68 4.67 1.36 4.34 0 4 C0 2.68 0 1.36 0 0 Z " fill="#EBEBEB" transform="translate(315,702)"/>
<path d="M0 0 C1.32 0.66 2.64 1.32 4 2 C3.67 2.66 3.34 3.32 3 4 C1.35 4 -0.3 4 -2 4 C-1.34 2.68 -0.68 1.36 0 0 Z " fill="#E3E3E3" transform="translate(325,996)"/>
<path d="M0 0 C2.31 0.33 4.62 0.66 7 1 C7 1.99 7 2.98 7 4 C4.97954558 3.39816251 2.97888961 2.72693904 1 2 C0.67 1.34 0.34 0.68 0 0 Z " fill="#272827" transform="translate(445,965)"/>
<path d="M0 0 C-3.06246747 1.78409802 -5.22079273 2.22880021 -8.75 2.125 C-9.54921875 2.10695313 -10.3484375 2.08890625 -11.171875 2.0703125 C-11.77515625 2.04710937 -12.3784375 2.02390625 -13 2 C-8.7920942 -0.80527053 -4.85771358 -1.68151624 0 0 Z " fill="#AAAAAA" transform="translate(554,918)"/>
<path d="M0 0 C0.66 0.33 1.32 0.66 2 1 C1.67 2.65 1.34 4.3 1 6 C0.34 5.67 -0.32 5.34 -1 5 C-1 4.34 -1 3.68 -1 3 C-1.66 2.67 -2.32 2.34 -3 2 C-2.01 1.34 -1.02 0.68 0 0 Z " fill="#D4D3D4" transform="translate(499,893)"/>
<path d="M0 0 C0.66 0.33 1.32 0.66 2 1 C1.835 1.61875 1.67 2.2375 1.5 2.875 C0.92365356 4.96063386 0.92365356 4.96063386 1 7 C0.01 7.33 -0.98 7.66 -2 8 C-2 5.69 -2 3.38 -2 1 C-1.34 0.67 -0.68 0.34 0 0 Z " fill="#E3E3E3" transform="translate(576,844)"/>
<path d="M0 0 C0.66 0.33 1.32 0.66 2 1 C0.02 3.31 -1.96 5.62 -4 8 C-4.66 7.67 -5.32 7.34 -6 7 C-4.02 4.69 -2.04 2.38 0 0 Z " fill="#212222" transform="translate(593,764)"/>
<path d="M0 0 C0.66 0 1.32 0 2 0 C1.67 1.65 1.34 3.3 1 5 C-0.65 5.33 -2.3 5.66 -4 6 C-2.7260411 3.96166576 -1.38938077 1.96147874 0 0 Z " fill="#DFDFE0" transform="translate(479,757)"/>
</svg>
